<mxfile host="app.diagrams.net" modified="2024-02-12T19:23:07.953Z" agent="Mozilla/5.0 (Windows NT 10.0; Win64; x64) AppleWebKit/537.36 (KHTML, like Gecko) Chrome/121.0.0.0 Safari/537.36 Edg/121.0.0.0" etag="VRt-63-CthyMLY2UUCSB" version="23.1.3" type="device">
  <diagram name="Page-1" id="eg9Phf7wTwMHFfWfgmxl">
    <mxGraphModel dx="1002" dy="535" grid="1" gridSize="10" guides="1" tooltips="1" connect="1" arrows="1" fold="1" page="1" pageScale="1" pageWidth="827" pageHeight="1169" math="0" shadow="0">
      <root>
        <mxCell id="0" />
        <mxCell id="1" parent="0" />
        <mxCell id="dP67qmj9h_wrqoU15blI-9" style="edgeStyle=orthogonalEdgeStyle;rounded=0;orthogonalLoop=1;jettySize=auto;html=1;" edge="1" parent="1" source="dP67qmj9h_wrqoU15blI-1" target="dP67qmj9h_wrqoU15blI-8">
          <mxGeometry relative="1" as="geometry" />
        </mxCell>
        <mxCell id="dP67qmj9h_wrqoU15blI-13" value="Ethernet &amp;lt;=&amp;gt; Ethernet" style="edgeLabel;html=1;align=center;verticalAlign=middle;resizable=0;points=[];" vertex="1" connectable="0" parent="dP67qmj9h_wrqoU15blI-9">
          <mxGeometry x="-0.064" y="-3" relative="1" as="geometry">
            <mxPoint as="offset" />
          </mxGeometry>
        </mxCell>
        <mxCell id="dP67qmj9h_wrqoU15blI-1" value="Raspberry Pi" style="rounded=0;whiteSpace=wrap;html=1;" vertex="1" parent="1">
          <mxGeometry x="400" y="210" width="120" height="60" as="geometry" />
        </mxCell>
        <mxCell id="dP67qmj9h_wrqoU15blI-6" style="edgeStyle=orthogonalEdgeStyle;rounded=0;orthogonalLoop=1;jettySize=auto;html=1;" edge="1" parent="1" source="dP67qmj9h_wrqoU15blI-2" target="dP67qmj9h_wrqoU15blI-1">
          <mxGeometry relative="1" as="geometry" />
        </mxCell>
        <mxCell id="dP67qmj9h_wrqoU15blI-11" value="USB B &amp;lt;=&amp;gt; Usb B" style="edgeLabel;html=1;align=center;verticalAlign=middle;resizable=0;points=[];" vertex="1" connectable="0" parent="dP67qmj9h_wrqoU15blI-6">
          <mxGeometry x="-0.33" relative="1" as="geometry">
            <mxPoint as="offset" />
          </mxGeometry>
        </mxCell>
        <mxCell id="dP67qmj9h_wrqoU15blI-2" value="CamÃ©ra pour les QR codes" style="rounded=0;whiteSpace=wrap;html=1;" vertex="1" parent="1">
          <mxGeometry x="130" y="210" width="120" height="60" as="geometry" />
        </mxCell>
        <mxCell id="dP67qmj9h_wrqoU15blI-7" style="edgeStyle=orthogonalEdgeStyle;rounded=0;orthogonalLoop=1;jettySize=auto;html=1;" edge="1" parent="1" source="dP67qmj9h_wrqoU15blI-3" target="dP67qmj9h_wrqoU15blI-1">
          <mxGeometry relative="1" as="geometry" />
        </mxCell>
        <mxCell id="dP67qmj9h_wrqoU15blI-10" value="HDMI &amp;lt;=&amp;gt; HDMI" style="edgeLabel;html=1;align=center;verticalAlign=middle;resizable=0;points=[];" vertex="1" connectable="0" parent="dP67qmj9h_wrqoU15blI-7">
          <mxGeometry x="-0.2971" y="4" relative="1" as="geometry">
            <mxPoint as="offset" />
          </mxGeometry>
        </mxCell>
        <mxCell id="dP67qmj9h_wrqoU15blI-3" value="Ecran" style="rounded=0;whiteSpace=wrap;html=1;" vertex="1" parent="1">
          <mxGeometry x="130" y="110" width="120" height="60" as="geometry" />
        </mxCell>
        <mxCell id="dP67qmj9h_wrqoU15blI-5" style="edgeStyle=orthogonalEdgeStyle;rounded=0;orthogonalLoop=1;jettySize=auto;html=1;" edge="1" parent="1" source="dP67qmj9h_wrqoU15blI-4" target="dP67qmj9h_wrqoU15blI-1">
          <mxGeometry relative="1" as="geometry" />
        </mxCell>
        <mxCell id="dP67qmj9h_wrqoU15blI-12" value="Connexion sur les pins" style="edgeLabel;html=1;align=center;verticalAlign=middle;resizable=0;points=[];" vertex="1" connectable="0" parent="dP67qmj9h_wrqoU15blI-5">
          <mxGeometry x="0.6097" y="4" relative="1" as="geometry">
            <mxPoint as="offset" />
          </mxGeometry>
        </mxCell>
        <mxCell id="dP67qmj9h_wrqoU15blI-4" value="Scanner RFID" style="rounded=0;whiteSpace=wrap;html=1;" vertex="1" parent="1">
          <mxGeometry x="130" y="320" width="120" height="60" as="geometry" />
        </mxCell>
        <mxCell id="dP67qmj9h_wrqoU15blI-8" value="Serveur" style="rounded=0;whiteSpace=wrap;html=1;" vertex="1" parent="1">
          <mxGeometry x="560" y="140" width="120" height="60" as="geometry" />
        </mxCell>
      </root>
    </mxGraphModel>
  </diagram>
</mxfile>
